<?xml version="1.0" standalone="no"?>
<!DOCTYPE svg PUBLIC "-//W3C//DTD SVG 20010904//EN"
 "http://www.w3.org/TR/2001/REC-SVG-20010904/DTD/svg10.dtd">
<svg version="1.0" xmlns="http://www.w3.org/2000/svg"
 width="500.000000pt" height="500.000000pt" viewBox="0 0 500.000000 500.000000"
 preserveAspectRatio="xMidYMid meet">

<g transform="translate(0.000000,500.000000) scale(0.100000,-0.100000)"
fill="#000000" stroke="none">
<path d="M60 4110 c0 -553 3 -840 10 -840 7 0 10 -208 10 -605 0 -533 -2 -604
-15 -599 -13 5 -15 82 -15 605 0 592 0 599 -20 599 -20 0 -20 -7 -20 -594 0
-327 -3 -601 -6 -610 -4 -11 -1 -16 11 -16 13 0 16 -6 13 -25 -4 -19 -1 -25
10 -23 8 2 17 -3 19 -9 3 -7 0 -13 -6 -13 -6 0 -11 -7 -11 -15 0 -23 19 -18
30 8 8 19 9 17 9 -15 1 -44 16 -56 41 -33 10 9 29 16 42 14 13 -1 40 6 60 15
21 9 41 16 45 16 23 1 103 103 118 151 9 26 29 49 43 49 6 0 30 18 53 40 24
22 51 43 61 46 10 3 18 14 18 25 0 10 5 19 10 19 6 0 15 10 21 23 17 37 43 48
79 36 17 -6 34 -9 37 -5 10 10 -28 45 -43 39 -8 -3 -20 0 -28 6 -10 8 -21 8
-41 1 -15 -6 -29 -9 -31 -7 -2 2 -1 19 2 39 5 26 13 38 28 42 20 5 20 6 2 19
-18 13 -18 14 -1 21 10 3 33 4 51 0 24 -4 34 -2 34 6 0 14 -110 7 -168 -10
-25 -7 -30 -5 -28 8 3 25 91 65 153 70 51 4 55 7 74 44 l20 39 -31 -16 c-16
-9 -57 -24 -90 -34 -33 -11 -81 -32 -107 -49 -27 -16 -68 -37 -93 -45 -57 -21
-221 -67 -235 -67 -5 0 35 23 90 50 55 28 89 48 75 44 -14 -3 -34 -7 -45 -10
-20 -5 -20 -5 0 8 10 7 56 47 100 90 97 91 138 108 217 89 59 -13 80 -4 119
50 21 30 21 32 3 24 -10 -4 -57 -11 -104 -15 -101 -8 -114 -12 -163 -58 -20
-20 -37 -31 -37 -25 0 6 25 34 56 62 43 40 71 56 125 72 86 26 129 59 129 100
0 19 -7 32 -22 40 -13 6 -34 22 -48 34 -14 12 -36 25 -50 28 -14 4 -48 28 -75
54 -28 27 -76 62 -108 78 -31 17 -55 35 -53 40 8 23 115 -3 171 -41 38 -26 39
-26 74 -8 l36 17 -45 12 c-25 7 -62 19 -84 29 -21 9 -66 19 -100 22 -33 3
-103 22 -155 41 -187 70 -237 98 -111 64 84 -23 142 -32 135 -21 -3 5 -19 11
-35 15 -53 12 -41 23 19 18 32 -3 88 0 125 6 90 16 135 3 190 -53 51 -53 73
-60 127 -46 l42 12 -39 18 c-21 9 -56 31 -77 48 -51 41 -99 56 -161 49 -39 -5
-47 -4 -33 4 42 25 129 22 208 -5 99 -34 153 -35 175 -1 15 23 15 28 0 59 -9
19 -16 42 -16 51 0 9 -8 29 -19 43 -10 15 -21 52 -24 83 -3 31 -18 88 -34 126
-22 52 -26 70 -16 70 22 0 81 -75 99 -126 22 -58 21 -57 69 -66 l40 -7 -31 34
c-18 18 -39 48 -49 66 -9 19 -46 66 -83 106 -57 62 -191 271 -180 281 2 2 32
-32 67 -76 35 -44 65 -78 68 -75 3 3 -4 18 -16 34 -31 44 -26 50 12 15 17 -17
68 -53 112 -80 91 -55 125 -104 125 -180 0 -47 21 -76 66 -93 41 -16 43 -12
18 37 -13 25 -24 55 -24 65 0 46 -51 114 -116 155 -11 6 -14 12 -8 12 24 2
130 -79 153 -116 14 -21 33 -51 44 -68 32 -50 64 -69 99 -59 25 7 33 18 43 50
7 23 16 47 20 54 4 7 9 27 10 44 1 17 14 49 29 70 14 22 36 71 47 110 11 39
22 76 24 81 12 36 2 -62 -11 -104 -8 -29 -13 -60 -11 -69 6 -27 26 31 36 107
l8 66 2 -66 c0 -37 -6 -85 -14 -108 -14 -40 -13 -44 7 -72 12 -16 24 -29 27
-29 3 0 6 91 6 202 1 126 6 237 15 293 l14 90 7 -98 c7 -97 19 -145 19 -74 0
20 5 37 10 37 6 0 10 -14 10 -30 0 -17 16 -71 35 -120 19 -49 35 -101 35 -115
0 -34 -26 -94 -52 -122 -24 -26 -21 -74 9 -119 l18 -28 6 39 c3 22 16 60 27
85 26 54 29 137 7 183 l-16 32 20 -23 c32 -37 44 -98 38 -194 -4 -55 -2 -88 4
-88 13 0 59 46 59 59 0 6 19 20 42 32 24 12 71 49 106 82 35 34 60 53 56 42
-5 -13 -4 -16 4 -11 21 13 13 -10 -26 -70 -21 -33 -49 -66 -62 -75 -21 -14
-22 -19 -13 -55 l9 -39 18 34 c10 18 33 54 51 80 18 25 38 64 45 86 7 22 26
63 42 90 37 61 151 216 155 211 2 -2 -14 -37 -36 -77 -50 -95 -64 -140 -27
-86 33 46 39 47 21 3 -8 -18 -19 -73 -25 -122 -14 -114 -40 -160 -110 -198
-53 -29 -70 -55 -70 -106 0 -38 14 -46 28 -15 6 14 33 40 60 60 49 34 79 81
101 155 9 31 10 28 6 -24 -6 -66 -29 -121 -75 -181 -39 -51 -49 -108 -26 -134
14 -16 29 -19 81 -17 34 2 68 7 74 11 7 4 29 6 49 4 74 -5 178 -1 214 9 31 8
36 8 34 -7 -3 -24 -91 -64 -153 -69 -51 -4 -55 -7 -74 -44 l-20 -39 31 16 c16
9 57 24 90 34 33 11 81 32 107 49 27 16 68 37 93 46 59 21 219 66 234 66 6 0
-34 -23 -89 -50 -55 -28 -90 -48 -77 -45 12 3 32 7 45 10 21 6 21 5 2 -7 -10
-7 -56 -47 -100 -90 -97 -91 -138 -108 -217 -89 -59 13 -80 4 -119 -50 -21
-30 -21 -32 -3 -24 10 4 57 11 104 15 101 8 114 12 163 58 20 20 37 31 37 25
0 -6 -25 -34 -56 -62 -43 -40 -71 -56 -125 -72 -86 -26 -129 -59 -129 -100 0
-19 7 -32 23 -40 12 -6 33 -22 47 -34 14 -12 37 -25 52 -29 15 -3 35 -15 45
-25 18 -19 19 -19 39 4 12 13 20 26 17 28 -7 8 107 18 171 15 39 -1 60 -6 63
-16 3 -8 2 -17 -3 -21 -14 -9 -34 -49 -34 -66 0 -20 29 -19 37 0 5 14 7 14 23
0 18 -16 93 -23 185 -16 92 7 114 2 142 -29 14 -16 32 -30 39 -30 7 0 15 -6
18 -12 5 -10 7 -10 12 0 3 6 12 12 21 12 8 0 30 12 49 26 27 21 45 26 85 25
29 0 58 -6 65 -12 7 -6 22 -8 33 -4 10 3 22 1 25 -4 4 -5 28 -10 54 -10 26 -1
54 -1 62 -2 8 0 33 3 56 7 36 5 44 3 67 -20 14 -14 33 -26 40 -26 8 0 30 -20
48 -45 19 -24 42 -45 51 -45 9 0 19 -4 22 -9 3 -4 20 -11 38 -15 44 -8 118
-39 118 -48 0 -5 6 -8 14 -8 8 0 24 -11 35 -25 32 -41 88 -75 150 -89 31 -7
71 -21 88 -30 18 -9 37 -16 43 -16 14 0 42 -27 55 -54 7 -14 21 -21 43 -22 18
-1 39 -8 48 -15 13 -10 17 -10 25 2 8 12 11 11 23 -4 7 -9 19 -17 25 -17 7 0
31 -21 54 -46 27 -29 52 -46 70 -48 15 -1 30 -6 34 -9 3 -4 14 -7 23 -7 18 0
60 -40 60 -58 0 -6 9 -16 20 -22 11 -6 20 -16 20 -22 0 -6 16 -28 35 -49 23
-26 35 -49 35 -69 0 -33 34 -104 59 -123 21 -16 91 -108 91 -120 0 -5 7 -6 16
-3 15 6 15 4 3 -10 -11 -14 -11 -18 -1 -21 6 -3 10 -9 7 -13 -3 -5 -1 -11 5
-15 6 -4 10 8 10 29 0 27 4 34 14 30 8 -3 17 -15 19 -27 2 -12 5 17 6 66 1 81
0 87 -19 87 -16 0 -20 7 -20 30 0 23 4 30 20 30 11 0 20 7 20 15 0 8 -9 15
-20 15 -18 0 -20 7 -20 79 0 75 1 80 23 84 l22 4 -22 2 c-30 1 -33 41 -3 41
20 0 20 7 20 275 0 238 -2 275 -15 275 -13 0 -15 128 -15 1090 l0 1090 -2455
0 -2455 0 0 -840z"/>
<path d="M1845 3924 c-46 -52 -60 -74 -47 -74 16 0 99 106 90 115 -2 2 -22
-16 -43 -41z"/>
<path d="M742 3815 c16 -43 68 -144 78 -150 26 -16 -21 88 -60 135 -12 14 -20
21 -18 15z"/>
<path d="M2388 3505 c-3 -3 -34 -10 -68 -16 -83 -13 -115 -32 -43 -25 47 4
155 43 127 45 -6 1 -13 -1 -16 -4z"/>
<path d="M450 3187 c36 -19 76 -37 90 -41 l25 -7 -25 20 c-21 17 -76 40 -140
58 -8 2 14 -11 50 -30z"/>
<path d="M565 2556 c-23 -7 -50 -18 -60 -25 -20 -12 -20 -12 0 -6 11 4 47 11
79 16 33 6 67 14 75 19 24 14 -46 11 -94 -4z"/>
<path d="M803 2525 c7 -5 16 -18 20 -27 3 -10 13 -18 22 -18 8 0 15 -7 15 -15
0 -13 -3 -13 -20 -3 -31 20 -38 -2 -7 -24 35 -25 38 -68 4 -68 -31 0 -67 -27
-67 -50 0 -18 3 -18 28 -7 15 6 29 15 32 18 3 4 16 9 29 10 31 5 81 76 88 125
7 55 -12 69 -94 69 -44 0 -59 -3 -50 -10z"/>
<path d="M1005 2400 c-4 -11 -24 -34 -46 -52 -21 -17 -39 -37 -39 -44 0 -7
-10 -20 -22 -28 -15 -11 -19 -19 -12 -26 15 -15 119 44 117 67 -1 10 2 20 6
23 12 8 21 69 11 75 -5 3 -11 -4 -15 -15z"/>
<path d="M700 2335 c-11 -13 -10 -14 4 -9 11 4 22 0 30 -11 10 -14 15 -15 21
-5 5 8 1 18 -10 27 -24 17 -30 16 -45 -2z"/>
<path d="M10 1940 c-13 -8 -12 -10 3 -10 9 0 17 5 17 10 0 12 -1 12 -20 0z"/>
<path d="M4755 1711 c-3 -6 -3 -11 2 -11 4 0 -5 -9 -21 -19 -26 -17 -32 -18
-63 -5 -18 8 -38 12 -44 8 -5 -3 -16 0 -24 6 -12 10 -18 10 -30 0 -14 -11 -19
-7 -16 13 2 11 -17 9 -24 -3 -3 -5 -20 -10 -36 -10 -26 0 -29 -3 -23 -25 4
-15 2 -25 -5 -25 -6 0 -11 6 -11 14 0 7 -12 16 -27 19 -16 3 -44 8 -63 12 -19
4 -41 10 -49 15 -7 4 -31 3 -53 -1 -21 -5 -49 -7 -62 -3 -13 3 -34 1 -46 -6
-17 -9 -19 -14 -9 -26 6 -8 25 -18 42 -22 17 -4 33 -14 35 -22 3 -9 -1 -11
-12 -7 -10 4 -19 1 -22 -7 -3 -8 -24 -18 -47 -21 -23 -4 -46 -10 -52 -14 -5
-3 -12 -6 -15 -6 -42 -5 -90 -21 -111 -36 -15 -10 -34 -19 -42 -19 -9 0 -30
-8 -49 -17 -59 -30 -63 -30 -76 -17 -7 8 -22 14 -32 14 -11 0 -20 4 -20 10 0
5 -29 7 -72 4 -176 -12 -228 -4 -228 35 0 23 -39 46 -53 32 -6 -6 -19 -11 -28
-11 -9 0 -22 -7 -29 -15 -7 -8 -27 -15 -46 -15 -18 0 -36 -4 -39 -10 -3 -5
-22 -10 -40 -10 -23 0 -38 -6 -44 -18 -5 -10 -29 -24 -52 -31 -24 -7 -68 -24
-98 -39 -59 -27 -65 -29 -82 -31 -6 0 -8 -9 -4 -20 6 -21 -15 -34 -42 -24 -16
6 -16 5 -4 -10 7 -10 19 -16 26 -15 6 2 27 -4 46 -13 80 -38 130 -59 144 -59
9 0 12 -6 8 -16 -3 -9 -1 -19 6 -23 21 -13 -14 -78 -46 -86 -15 -3 -36 -14
-46 -22 -14 -13 -22 -14 -44 -4 -32 15 -44 1 -36 -41 5 -27 4 -28 -32 -28 -32
0 -36 -2 -25 -15 10 -12 9 -16 -5 -21 -9 -4 -21 -2 -28 5 -19 19 -37 13 -34
-11 2 -20 -3 -23 -37 -23 -21 0 -44 4 -50 10 -6 5 -21 11 -33 12 -12 1 -39 14
-60 28 -30 21 -45 25 -73 20 -53 -9 -100 -25 -155 -52 -44 -22 -59 -24 -120
-19 -39 4 -99 8 -134 9 l-65 2 -21 54 c-14 35 -32 59 -49 68 -14 7 -26 21 -26
31 0 20 -23 89 -33 98 -4 4 -7 25 -7 46 0 34 -3 38 -25 38 -14 0 -25 4 -25 10
0 5 -10 14 -21 21 -16 8 -23 8 -29 -1 -5 -8 -36 -13 -81 -15 -41 -1 -85 -5
-98 -10 -20 -6 -30 0 -62 35 -22 23 -39 46 -39 50 0 5 -9 6 -19 3 -12 -3 -26
3 -37 16 -13 15 -21 17 -31 10 -9 -8 -17 -7 -28 5 -9 9 -18 16 -20 16 -6 0 1
-59 8 -66 10 -10 9 -44 -1 -44 -5 0 -18 9 -31 21 -21 20 -21 22 -4 35 17 12
16 13 -9 14 -15 0 -30 5 -33 10 -9 15 -133 1 -175 -20 -45 -22 -106 -15 -143
16 -50 42 -102 44 -143 6 -11 -11 -30 -25 -42 -31 -12 -6 -22 -20 -22 -30 0
-11 -7 -22 -16 -25 -8 -3 -13 -10 -10 -15 11 -17 -6 -41 -28 -41 -12 0 -36
-15 -53 -32 -58 -62 -74 -70 -70 -37 1 12 -3 24 -10 26 -7 3 -10 -3 -7 -14 3
-11 -5 -28 -20 -42 -25 -23 -46 -22 -46 4 0 18 -21 24 -43 13 -21 -11 -12 -32
10 -24 9 4 13 1 11 -6 -5 -15 -42 -22 -65 -14 -12 5 -13 9 -3 21 10 13 10 19
-4 34 -19 21 -3 42 17 22 21 -21 44 -12 51 20 6 31 -7 69 -24 69 -6 0 -10 7
-10 15 0 8 6 15 14 15 8 0 30 18 49 40 19 22 41 40 50 40 21 0 31 18 33 58 0
24 -3 32 -17 32 -9 0 -19 6 -22 14 -9 23 -82 54 -133 57 -27 2 -56 6 -64 10
-55 25 -97 30 -190 24 -92 -6 -102 -5 -130 15 -22 15 -29 27 -25 40 3 10 1 21
-5 25 -6 4 -10 -21 -10 -75 0 -80 0 -81 -22 -75 -37 12 -43 23 -23 45 14 16
15 22 5 35 -7 8 -19 15 -26 15 -18 0 -19 -80 -1 -99 9 -11 9 -13 0 -7 -23 13
-14 -20 12 -48 l25 -28 -25 -30 c-14 -17 -23 -33 -21 -36 3 -3 14 6 25 19 l20
24 1 -22 c0 -13 -5 -23 -11 -23 -7 0 -9 -12 -5 -34 8 -41 -10 -58 -23 -24 -9
21 -10 21 -10 -9 -1 -34 14 -45 40 -32 12 6 16 23 17 65 0 31 5 61 11 67 8 8
11 -176 11 -649 1 -564 3 -662 15 -678 8 -11 15 -37 15 -57 0 -44 9 -53 44
-39 16 6 27 6 31 0 4 -6 689 -10 1874 -10 l1869 0 7 23 8 22 4 -22 c4 -21 10
-23 70 -23 57 0 64 2 53 15 -26 32 38 63 68 33 9 -9 12 -8 12 5 0 16 29 17
379 17 l378 0 27 26 c20 21 26 37 26 70 0 37 3 44 20 44 19 0 20 7 20 140 0
133 -1 140 -20 140 -19 0 -20 7 -20 215 0 118 3 215 6 215 4 0 13 -8 20 -17
11 -15 13 9 14 155 0 172 0 173 -21 162 -17 -10 -20 -9 -19 7 4 37 0 53 -15
53 -8 0 -15 4 -15 9 0 5 -15 14 -32 21 -40 16 -86 62 -94 96 -3 13 -11 24 -18
24 -15 0 -38 38 -30 51 3 5 14 7 25 4 15 -5 19 -1 19 19 0 14 -5 26 -11 26 -6
0 -9 14 -7 33 3 29 6 32 36 31 17 -1 32 0 32 2 0 3 -13 18 -30 34 -16 16 -30
35 -30 42 -1 21 -27 51 -35 39z m-3315 -411 c0 -5 -4 -10 -10 -10 -5 0 -10 5
-10 10 0 6 5 10 10 10 6 0 10 -4 10 -10z m50 -51 c0 -5 -4 -9 -10 -9 -5 0 -10
7 -10 16 0 8 5 12 10 9 6 -3 10 -10 10 -16z m50 1 c0 -13 -11 -13 -30 0 -12 8
-11 10 8 10 12 0 22 -4 22 -10z m10 -66 c0 -8 -4 -12 -10 -9 -5 3 -10 10 -10
16 0 5 5 9 10 9 6 0 10 -7 10 -16z m1450 -144 c0 -5 -5 -10 -11 -10 -5 0 -7 5
-4 10 3 6 8 10 11 10 2 0 4 -4 4 -10z m1014 -985 c-6 -16 -24 -21 -24 -7 0 11
11 22 21 22 5 0 6 -7 3 -15z m-2659 -15 c-3 -5 -10 -10 -16 -10 -5 0 -9 5 -9
10 0 6 7 10 16 10 8 0 12 -4 9 -10z"/>
<path d="M690 1489 c0 -5 5 -7 10 -4 6 3 10 8 10 11 0 2 -4 4 -10 4 -5 0 -10
-5 -10 -11z"/>
<path d="M4980 720 c0 -5 5 -10 10 -10 6 0 10 5 10 10 0 6 -4 10 -10 10 -5 0
-10 -4 -10 -10z"/>
<path d="M4138 23 c-48 -7 -30 -23 25 -23 48 1 50 2 33 15 -11 8 -22 14 -25
14 -3 -1 -18 -4 -33 -6z"/>
<path d="M4230 10 c0 -5 5 -10 11 -10 5 0 7 5 4 10 -3 6 -8 10 -11 10 -2 0 -4
-4 -4 -10z"/>
</g>
</svg>
